<svg xmlns="http://www.w3.org/2000/svg" viewBox="0 0 640 480">
  <defs>
    <linearGradient id="bg" x1="0" x2="1" y1="0" y2="1">
      <stop offset="0" stop-color="#151923"/>
      <stop offset="0.58" stop-color="#243041"/>
      <stop offset="1" stop-color="#13131f"/>
    </linearGradient>
    <linearGradient id="gold" x1="0" x2="1" y1="0" y2="1">
      <stop offset="0" stop-color="#ffe49a"/>
      <stop offset="1" stop-color="#f4b84f"/>
    </linearGradient>
    <filter id="shadow" x="-20%" y="-20%" width="140%" height="150%">
      <feDropShadow dx="0" dy="14" stdDeviation="14" flood-color="#000" flood-opacity="0.38"/>
    </filter>
  </defs>
  <rect width="640" height="480" fill="url(#bg)"/>
  <g opacity="0.2">
    <circle cx="92" cy="62" r="150" fill="#3fbf8f"/>
    <circle cx="600" cy="418" r="190" fill="#7c5cfc"/>
  </g>
  <g transform="translate(78 76)" filter="url(#shadow)">
    <rect x="0" y="0" width="300" height="300" rx="18" fill="#2b2130"/>
    <g transform="translate(18 18)">
      <rect x="0" y="0" width="66" height="66" fill="#d9c39a"/>
      <rect x="66" y="0" width="66" height="66" fill="#5b7354"/>
      <rect x="132" y="0" width="66" height="66" fill="#d9c39a"/>
      <rect x="198" y="0" width="66" height="66" fill="#5b7354"/>
      <rect x="0" y="66" width="66" height="66" fill="#5b7354"/>
      <rect x="66" y="66" width="66" height="66" fill="#d9c39a"/>
      <rect x="132" y="66" width="66" height="66" fill="#5b7354"/>
      <rect x="198" y="66" width="66" height="66" fill="#d9c39a"/>
      <rect x="0" y="132" width="66" height="66" fill="#d9c39a"/>
      <rect x="66" y="132" width="66" height="66" fill="#5b7354"/>
      <rect x="132" y="132" width="66" height="66" fill="#d9c39a"/>
      <rect x="198" y="132" width="66" height="66" fill="#5b7354"/>
      <rect x="0" y="198" width="66" height="66" fill="#5b7354"/>
      <rect x="66" y="198" width="66" height="66" fill="#d9c39a"/>
      <rect x="132" y="198" width="66" height="66" fill="#5b7354"/>
      <rect x="198" y="198" width="66" height="66" fill="#d9c39a"/>
    </g>
  </g>
  <text x="223" y="246" font-family="Georgia, serif" font-size="164" text-anchor="middle" fill="#faf8ef" stroke="#171923" stroke-width="5">♞</text>
  <text x="430" y="172" font-family="Inter, Arial, sans-serif" font-size="34" font-weight="900" fill="#3fbf8f" letter-spacing="4">BONKER</text>
  <text x="430" y="242" font-family="Inter, Arial, sans-serif" font-size="78" font-weight="900" fill="#fff">CHESS</text>
  <rect x="431" y="274" width="143" height="38" rx="8" fill="url(#gold)"/>
  <text x="502" y="300" font-family="Inter, Arial, sans-serif" font-size="18" font-weight="900" fill="#1f1b13" text-anchor="middle">PLAY NOW</text>
  <text x="430" y="352" font-family="Inter, Arial, sans-serif" font-size="22" font-weight="700" fill="#9ca7bd">Classic chess, Bonker style</text>
</svg>
